<?xml version="1.0" encoding="iso-8859-1"?>
<!-- Generator: Adobe Illustrator 18.1.1, SVG Export Plug-In . SVG Version: 6.00 Build 0)  -->
<svg version="1.1" id="Capa_1" xmlns="http://www.w3.org/2000/svg" xmlns:xlink="http://www.w3.org/1999/xlink" x="0px" y="0px"
	 viewBox="0 0 45.456 45.456" style="enable-background:new 0 0 45.456 45.456;" xml:space="preserve">
<g>
	<g>
		<path style="fill:#010002;" d="M45.456,9.312h-41.3L2.972,3.431C2.809,2.619,2.01,2.1,1.205,2.256
			C0.392,2.42-0.133,3.21,0.03,4.023l5.636,28c0.142,0.7,0.757,1.204,1.471,1.204h3.391c-1.158,1.053-1.89,2.565-1.89,4.25
			c0,3.171,2.579,5.75,5.75,5.75s5.75-2.579,5.75-5.75c0-1.685-0.732-3.197-1.891-4.25h10.531c-1.158,1.053-1.891,2.565-1.891,4.25
			c0,3.171,2.579,5.75,5.75,5.75s5.75-2.579,5.75-5.75c0-1.685-0.732-3.197-1.891-4.25h6.142c0.828,0,1.5-0.672,1.5-1.5
			c0-0.828-0.672-1.5-1.5-1.5H8.366l-1.007-5h35.016L45.456,9.312z M14.388,40.227c-1.517,0-2.75-1.233-2.75-2.75
			s1.233-2.75,2.75-2.75s2.75,1.233,2.75,2.75S15.905,40.227,14.388,40.227z M32.638,40.227c-1.517,0-2.75-1.233-2.75-2.75
			s1.233-2.75,2.75-2.75s2.75,1.233,2.75,2.75S34.155,40.227,32.638,40.227z M39.901,22.227H6.756L4.76,12.312h37.06L39.901,22.227z
			"/>
	</g>
</g>
<g>
</g>
<g>
</g>
<g>
</g>
<g>
</g>
<g>
</g>
<g>
</g>
<g>
</g>
<g>
</g>
<g>
</g>
<g>
</g>
<g>
</g>
<g>
</g>
<g>
</g>
<g>
</g>
<g>
</g>
</svg>
